<?xml version="1.0" encoding="UTF-8" standalone="no"?>
<!DOCTYPE svg PUBLIC "-//W3C//DTD SVG 1.1//EN" "http://www.w3.org/Graphics/SVG/1.1/DTD/svg11.dtd">
<!-- Copyright 2026 MONADIC.US -->
<svg width="100%" height="100%" viewBox="0 0 2861 1292" version="1.1" xmlns="http://www.w3.org/2000/svg" xmlns:xlink="http://www.w3.org/1999/xlink" xml:space="preserve" xmlns:serif="http://www.serif.com/" style="fill-rule:evenodd;clip-rule:evenodd;stroke-linecap:round;stroke-linejoin:round;stroke-miterlimit:1.5;">
    <g transform="matrix(7.03559,0,0,9.59514,1264.96,481.253)">
        <rect x="0" y="0" width="45.798" height="34.28" style="fill:rgb(130,91,91);"/>
    </g>
    <g transform="matrix(1.00153,0,0,0.939534,-72.0735,-740.639)">
        <g transform="matrix(15.5085,0,0,6.73972,-1.83539,775.764)">
            <path d="M184.327,55.016C184.327,32.022 176.717,13.354 167.343,13.354L25.802,13.354C16.428,13.354 8.817,32.022 8.817,55.016L8.817,138.339C8.817,161.332 16.428,180 25.802,180L167.343,180C176.717,180 184.327,161.332 184.327,138.339L184.327,55.016Z" style="fill:rgb(255,0,0);stroke:black;stroke-width:2.81px;"/>
        </g>
        <g transform="matrix(15.5085,0,0,6.73972,-1.83539,775.764)">
            <path d="M184.327,55.016C184.327,32.022 176.717,13.354 167.343,13.354L25.802,13.354C16.428,13.354 8.817,32.022 8.817,55.016L8.817,138.339C8.817,161.332 16.428,180 25.802,180L167.343,180C176.717,180 184.327,161.332 184.327,138.339L184.327,55.016Z" style="fill:rgb(255,0,0);stroke:black;stroke-width:2.81px;"/>
        </g>
        <g transform="matrix(16.4697,0,0,16.4697,-7.0005,140.256)">
            <g transform="matrix(1,0,0,1,-90.1898,-15.7799)">
                <path d="M132.604,114.662L132.559,123.828C132.559,125.173 132.765,126.173 133.177,126.83C133.59,127.487 134.453,127.816 135.767,127.816L147.363,127.816C148.768,127.846 149.471,128.916 149.471,131.024C149.471,132.644 149.272,133.82 148.875,134.553C148.478,135.287 147.668,135.669 146.446,135.699C142.138,135.821 137.875,135.882 133.659,135.882C129.442,135.882 124.064,135.852 117.525,135.791C116.425,135.791 115.531,135.523 114.844,134.989C114.156,134.454 113.767,133.713 113.675,132.766C113.431,130.107 113.309,125.914 113.309,120.185C113.309,114.455 113.377,110.59 113.515,108.589C113.652,106.587 113.935,105.258 114.363,104.601C114.79,103.944 115.631,103.616 116.884,103.616L129.167,103.616C130.45,103.616 131.298,103.952 131.711,104.624C132.123,105.296 132.375,106.381 132.467,107.878C132.559,109.375 132.604,111.637 132.604,114.662Z" style="fill:white;fill-rule:nonzero;stroke:black;stroke-width:2.08px;stroke-linecap:butt;stroke-miterlimit:2;"/>
                <path d="M154.971,103.616L167.254,103.616C168.538,103.616 169.386,103.937 169.798,104.578C170.211,105.22 170.486,106.541 170.623,108.543C170.761,110.544 170.829,114.425 170.829,120.185C170.829,125.944 170.707,130.169 170.463,132.857C170.371,133.56 170.058,134.187 169.523,134.737C168.988,135.287 168.278,135.592 167.392,135.653C165.65,135.775 163.634,135.837 161.342,135.837C159.05,135.837 156.881,135.775 154.834,135.653C153.947,135.592 153.237,135.287 152.702,134.737C152.168,134.187 151.854,133.56 151.763,132.857C151.518,130.169 151.396,125.944 151.396,120.185C151.396,114.425 151.465,110.544 151.602,108.543C151.74,106.541 152.015,105.22 152.427,104.578C152.84,103.937 153.688,103.616 154.971,103.616Z" style="fill:white;fill-rule:nonzero;stroke:black;stroke-width:2.08px;stroke-linecap:butt;stroke-miterlimit:2;"/>
                <path d="M200.484,133.316C199.934,134.355 198.979,135.164 197.619,135.745C196.259,136.325 194.785,136.616 193.196,136.616C191.607,136.616 190.156,136.341 188.842,135.791C187.528,135.241 186.581,134.446 186,133.407C181.417,124.944 177.154,116.632 173.213,108.474C172.754,107.496 172.525,106.748 172.525,106.228C172.525,104.578 173.274,103.753 174.771,103.753L188.017,103.662C189.147,103.662 190.011,103.86 190.606,104.257C191.202,104.655 191.729,105.449 192.188,106.641L196.634,118.007C196.817,118.496 197.153,118.741 197.642,118.741C198.131,118.741 198.497,118.496 198.742,118.007L204.746,104.991C205.143,104.166 205.571,103.707 206.029,103.616C206.213,103.585 206.534,103.57 206.992,103.57L212.263,103.662C212.843,103.662 213.256,103.937 213.5,104.487C213.592,104.7 213.638,104.96 213.638,105.266C213.638,105.571 213.294,106.412 212.606,107.787C211.919,109.162 210.131,112.981 207.244,119.245C204.356,125.509 202.103,130.199 200.484,133.316Z" style="fill:white;fill-rule:nonzero;stroke:black;stroke-width:2.08px;stroke-linecap:butt;stroke-miterlimit:2;"/>
                <path d="M218.679,135.699C217.824,135.699 217.098,135.416 216.502,134.851C215.906,134.286 215.525,133.354 215.356,132.055C215.188,130.757 215.104,126.861 215.104,120.368C215.104,113.875 215.211,109.635 215.425,107.649C215.67,105.082 216.754,103.769 218.679,103.707C220.879,103.646 230,103.616 246.042,103.616C247.845,103.616 248.746,104.762 248.746,107.053C248.746,108.856 247.952,109.757 246.363,109.757L236.279,109.757C235.638,109.757 235.126,109.971 234.744,110.399C234.362,110.827 234.171,111.377 234.171,112.049L234.171,115.349C234.171,116.266 234.584,116.724 235.409,116.724L243.75,116.724C244.239,116.724 244.613,116.77 244.873,116.862C245.133,116.953 245.37,117.221 245.584,117.664C245.797,118.107 245.904,118.832 245.904,119.841C245.904,120.849 245.729,121.521 245.377,121.857C245.026,122.194 244.453,122.362 243.659,122.362L236.188,122.362C235.424,122.362 234.897,122.553 234.606,122.935C234.316,123.316 234.171,123.905 234.171,124.699L234.171,126.945C234.171,128.259 234.797,128.916 236.05,128.916L247.463,128.916C248.013,128.916 248.502,129.076 248.929,129.397C249.357,129.718 249.571,130.421 249.571,131.505C249.571,132.59 249.311,133.56 248.792,134.416C248.272,135.271 247.661,135.699 246.959,135.699L218.679,135.699Z" style="fill:white;fill-rule:nonzero;stroke:black;stroke-width:2.08px;stroke-linecap:butt;stroke-miterlimit:2;"/>
            </g>
            <g transform="matrix(1.44279,0,0,1.44279,-35.2326,1.5139)">
                <path d="M62.331,38.578L66.747,38.641C67.403,38.641 67.911,38.768 68.271,39.022C68.631,39.277 68.896,39.7 69.066,40.293L71.003,46.71C71.046,46.879 71.12,46.996 71.226,47.059C71.332,47.123 71.438,47.123 71.543,47.059C71.649,46.996 71.723,46.89 71.766,46.742L74.434,38.101C74.561,37.678 74.757,37.381 75.022,37.212C75.287,37.042 75.705,36.958 76.277,36.958L79.866,36.958C80.269,36.958 80.555,37.148 80.724,37.529C80.809,37.699 80.851,37.889 80.851,38.101C80.851,38.313 80.655,38.911 80.264,39.896C79.872,40.881 78.998,43.459 77.643,47.631C76.287,51.803 75.112,54.97 74.117,57.13C73.269,58.909 71.628,59.798 69.193,59.798C67.88,59.798 66.641,59.496 65.476,58.893C64.311,58.289 63.533,57.537 63.141,56.637C62.749,55.737 62.23,54.419 61.584,52.682C60.939,50.946 60.488,49.739 60.234,49.061C59.133,52.534 58.148,55.213 57.28,57.098C56.878,57.945 56.142,58.602 55.072,59.067C54.003,59.533 52.822,59.766 51.53,59.766C48.438,59.766 46.384,58.623 45.367,56.335C42.127,48.966 39.925,43.555 38.76,40.102C38.59,39.552 38.506,39.086 38.506,38.705C38.506,37.519 39.067,36.926 40.189,36.926L49.275,36.83C50.058,36.83 50.641,36.968 51.022,37.243C51.403,37.519 51.71,38.048 51.943,38.832L54.167,46.647C54.209,46.837 54.283,46.964 54.389,47.028C54.622,47.155 54.802,47.038 54.929,46.678L57.058,40.198C57.375,39.181 58.032,38.662 59.027,38.641C60.34,38.599 61.441,38.578 62.331,38.578Z" style="fill:white;fill-rule:nonzero;stroke:black;stroke-width:1.44px;stroke-linecap:butt;stroke-miterlimit:2;"/>
                <path d="M96.227,38.387L106.614,55.954C107.038,56.653 107.25,57.241 107.25,57.717C107.25,58.194 107.059,58.549 106.678,58.782C106.297,59.015 105.852,59.131 105.344,59.131L95.115,59.131C94.077,59.131 93.41,58.94 93.113,58.559C93.029,58.432 92.912,58.21 92.764,57.892L91.843,55.923C91.567,55.308 90.921,54.959 89.905,54.874L83.901,54.874C83.456,54.874 83.117,54.917 82.884,55.001C82.651,55.086 82.461,55.277 82.312,55.573L81.074,58.146C80.862,58.527 80.629,58.787 80.375,58.925C80.121,59.062 79.75,59.131 79.263,59.131L76.404,59.131C75.578,59.131 75.133,58.835 75.07,58.242C75.048,58.157 75.038,58.072 75.038,57.987C75.038,57.5 75.197,57.034 75.514,56.59L85.457,39.054C86.41,37.402 87.956,36.576 90.095,36.576L92.637,36.576C94.331,36.576 95.528,37.18 96.227,38.387ZM85.934,46.519L84.473,49.41C84.388,49.601 84.346,49.77 84.346,49.919C84.346,50.469 84.61,50.744 85.14,50.744L88.031,50.744C88.475,50.744 88.782,50.633 88.952,50.411C89.121,50.189 89.206,49.993 89.206,49.823C89.206,49.654 89.174,49.484 89.111,49.315L87.904,46.583C87.649,46.032 87.321,45.757 86.919,45.757C86.516,45.757 86.188,46.011 85.934,46.519Z" style="fill:white;fill-rule:nonzero;stroke:black;stroke-width:1.44px;stroke-linecap:butt;stroke-miterlimit:2;"/>
                <path d="M107.059,59.131C106.636,59.131 106.424,58.972 106.424,58.654C106.424,58.464 106.54,58.242 106.773,57.987L115.223,49.061L107.504,40.071C107.059,39.52 106.837,39.07 106.837,38.721C106.837,38.371 106.89,38.091 106.996,37.879C107.313,37.243 107.874,36.926 108.679,36.926L120.687,36.894C121.301,36.894 121.762,36.989 122.069,37.18C122.376,37.371 122.741,37.762 123.165,38.355L124.849,40.77C125.166,41.257 125.426,41.5 125.627,41.5C125.828,41.5 126.119,41.299 126.501,40.897L129.709,37.656C130.027,37.318 130.27,37.106 130.44,37.021C130.609,36.936 130.853,36.894 131.17,36.894L136.221,36.894C136.624,36.894 136.825,37.032 136.825,37.307C136.825,37.519 136.708,37.773 136.475,38.069L129.01,46.329C132.25,50.67 134.612,53.921 136.094,56.081C136.56,56.738 136.793,57.331 136.793,57.86C136.793,58.623 136.359,59.015 135.491,59.036C133.542,59.078 131.668,59.099 129.868,59.099C128.068,59.099 126.543,59.094 125.293,59.083C124.044,59.073 123.303,58.898 123.07,58.559L119.417,54.016C119.162,53.699 118.945,53.54 118.765,53.54C118.585,53.54 118.336,53.699 118.019,54.016L113.825,58.4C113.508,58.739 113.27,58.946 113.111,59.02C112.952,59.094 112.714,59.131 112.396,59.131L107.059,59.131Z" style="fill:white;fill-rule:nonzero;stroke:black;stroke-width:1.44px;stroke-linecap:butt;stroke-miterlimit:2;"/>
            </g>
        </g>
    </g>
</svg>
